<?xml version="1.0" standalone="no"?><!DOCTYPE svg PUBLIC "-//W3C//DTD SVG 1.1//EN" "http://www.w3.org/Graphics/SVG/1.1/DTD/svg11.dtd"><svg t="1648431274753" class="icon" viewBox="0 0 1024 1024" version="1.1" xmlns="http://www.w3.org/2000/svg" p-id="8486" xmlns:xlink="http://www.w3.org/1999/xlink" width="200" height="200"><defs><style type="text/css">@font-face { font-family: feedback-iconfont; src: url("//at.alicdn.com/t/font_1031158_u69w8yhxdu.woff2?t=1630033759944") format("woff2"), url("//at.alicdn.com/t/font_1031158_u69w8yhxdu.woff?t=1630033759944") format("woff"), url("//at.alicdn.com/t/font_1031158_u69w8yhxdu.ttf?t=1630033759944") format("truetype"); }
</style></defs><path d="M512.219429 660.059429c18.432 0 33.846857-15.414857 33.846857-33.426286V186.514286l-2.56-63.853715 29.129143 30.427429 64.731428 68.992c5.997714 6.857143 14.994286 10.294857 23.131429 10.294857 17.993143 0 31.286857-12.854857 31.286857-29.988571 0-9.435429-3.437714-16.292571-9.856-22.729143l-144.859429-139.702857c-8.576-8.594286-16.274286-11.574857-24.868571-11.574857-8.978286 0-16.274286 2.998857-24.850286 11.574857l-144.859428 139.702857c-6.418286 6.436571-10.276571 13.293714-10.276572 22.710857 0 17.152 12.854857 29.988571 30.866286 29.988571 8.557714 0 17.554286-3.419429 23.552-10.276571l65.152-68.992 29.147428-30.866286-2.998857 64.292572v440.137143c0 18.011429 15.853714 33.426286 34.285715 33.426285zM266.221714 995.657143H757.76c90.002286 0 134.582857-44.562286 134.582857-132.845714v-422.582858c0-88.283429-44.580571-132.864-134.582857-132.864h-119.131429v69.010286h118.272c42.002286 0 66.432 22.710857 66.432 67.291429v415.707428c0 44.580571-24.429714 67.291429-66.432 67.291429H267.52c-42.861714 0-66.852571-22.710857-66.852571-67.291429V443.648c0-44.580571 23.990857-67.291429 66.852571-67.291429h118.290286v-69.010285h-119.588572c-89.124571 0-134.564571 44.16-134.564571 132.864v422.582857c0 88.704 45.44 132.845714 134.582857 132.845714z" p-id="8487"></path></svg>